<svg width="900px" height="1002px"
 viewBox="0.00 0.00 557.00 620.00" xmlns="http://www.w3.org/2000/svg" xmlns:xlink="http://www.w3.org/1999/xlink">
<g id="graph0" class="graph" transform="scale(1.0 1.0) rotate(0) translate(4 616)">
<title>G0</title>
<polygon fill="white" stroke="transparent" points="-4,4 -4,-616 553,-616 553,4 -4,4"/>
<!-- 0 -->
<g id="node1" class="node">
<title>0</title>
<polygon fill="none" stroke="black" points="432,-612 378,-612 378,-576 432,-576 432,-612"/>
<text text-anchor="middle" x="405" y="-589.8" font-family="Times,serif" font-size="14.00">blok</text>
</g>
<!-- 1 -->
<g id="node2" class="node">
<title>1</title>
<ellipse fill="none" stroke="red" stroke-width="2" cx="328" cy="-522" rx="32.48" ry="18"/>
<text text-anchor="middle" x="328" y="-517.8" font-family="Times,serif" font-size="14.00">begin</text>
</g>
<!-- 0&#45;&#45;1 -->
<g id="edge3" class="edge">
<title>0&#45;&#45;1</title>
<path fill="none" stroke="black" d="M385.97,-575.7C373.14,-564.04 356.4,-548.82 344.21,-537.74"/>
</g>
<!-- 2 -->
<g id="node3" class="node">
<title>2</title>
<polygon fill="none" stroke="black" points="432,-540 378,-540 378,-504 432,-504 432,-540"/>
<text text-anchor="middle" x="405" y="-517.8" font-family="Times,serif" font-size="14.00">E</text>
</g>
<!-- 0&#45;&#45;2 -->
<g id="edge2" class="edge">
<title>0&#45;&#45;2</title>
<path fill="none" stroke="black" d="M405,-575.7C405,-564.85 405,-550.92 405,-540.1"/>
</g>
<!-- 33 -->
<g id="node34" class="node">
<title>33</title>
<ellipse fill="none" stroke="red" stroke-width="2" cx="477" cy="-522" rx="27" ry="18"/>
<text text-anchor="middle" x="477" y="-517.8" font-family="Times,serif" font-size="14.00">end</text>
</g>
<!-- 0&#45;&#45;33 -->
<g id="edge1" class="edge">
<title>0&#45;&#45;33</title>
<path fill="none" stroke="black" d="M422.8,-575.7C434.96,-563.87 450.88,-548.4 462.31,-537.28"/>
</g>
<!-- 3 -->
<g id="node4" class="node">
<title>3</title>
<polygon fill="none" stroke="black" points="393,-468 339,-468 339,-432 393,-432 393,-468"/>
<text text-anchor="middle" x="366" y="-445.8" font-family="Times,serif" font-size="14.00">T</text>
</g>
<!-- 2&#45;&#45;3 -->
<g id="edge5" class="edge">
<title>2&#45;&#45;3</title>
<path fill="none" stroke="black" d="M395.36,-503.7C389.31,-492.85 381.55,-478.92 375.53,-468.1"/>
</g>
<!-- 28 -->
<g id="node29" class="node">
<title>28</title>
<polygon fill="none" stroke="black" points="471,-468 417,-468 417,-432 471,-432 471,-468"/>
<text text-anchor="middle" x="444" y="-445.8" font-family="Times,serif" font-size="14.00">E1</text>
</g>
<!-- 2&#45;&#45;28 -->
<g id="edge4" class="edge">
<title>2&#45;&#45;28</title>
<path fill="none" stroke="black" d="M414.64,-503.7C420.69,-492.85 428.45,-478.92 434.47,-468.1"/>
</g>
<!-- 4 -->
<g id="node5" class="node">
<title>4</title>
<polygon fill="none" stroke="black" points="213,-396 159,-396 159,-360 213,-360 213,-396"/>
<text text-anchor="middle" x="186" y="-373.8" font-family="Times,serif" font-size="14.00">F</text>
</g>
<!-- 3&#45;&#45;4 -->
<g id="edge7" class="edge">
<title>3&#45;&#45;4</title>
<path fill="none" stroke="black" d="M338.66,-438.37C304.63,-425.14 246.88,-402.68 213.01,-389.5"/>
</g>
<!-- 22 -->
<g id="node23" class="node">
<title>22</title>
<polygon fill="none" stroke="black" points="393,-396 339,-396 339,-360 393,-360 393,-396"/>
<text text-anchor="middle" x="366" y="-373.8" font-family="Times,serif" font-size="14.00">T1</text>
</g>
<!-- 3&#45;&#45;22 -->
<g id="edge6" class="edge">
<title>3&#45;&#45;22</title>
<path fill="none" stroke="black" d="M366,-431.7C366,-420.85 366,-406.92 366,-396.1"/>
</g>
<!-- 5 -->
<g id="node6" class="node">
<title>5</title>
<ellipse fill="none" stroke="red" stroke-width="2" cx="78" cy="-306" rx="27" ry="18"/>
<text text-anchor="middle" x="78" y="-301.8" font-family="Times,serif" font-size="14.00">(</text>
</g>
<!-- 4&#45;&#45;5 -->
<g id="edge10" class="edge">
<title>4&#45;&#45;5</title>
<path fill="none" stroke="black" d="M159.58,-359.88C140.1,-347.25 114.06,-330.38 96.7,-319.12"/>
</g>
<!-- 6 -->
<g id="node7" class="node">
<title>6</title>
<polygon fill="none" stroke="black" points="177,-324 123,-324 123,-288 177,-288 177,-324"/>
<text text-anchor="middle" x="150" y="-301.8" font-family="Times,serif" font-size="14.00">E</text>
</g>
<!-- 4&#45;&#45;6 -->
<g id="edge9" class="edge">
<title>4&#45;&#45;6</title>
<path fill="none" stroke="black" d="M177.1,-359.7C171.52,-348.85 164.36,-334.92 158.8,-324.1"/>
</g>
<!-- 21 -->
<g id="node22" class="node">
<title>21</title>
<ellipse fill="none" stroke="red" stroke-width="2" cx="222" cy="-306" rx="27" ry="18"/>
<text text-anchor="middle" x="222" y="-301.8" font-family="Times,serif" font-size="14.00">)</text>
</g>
<!-- 4&#45;&#45;21 -->
<g id="edge8" class="edge">
<title>4&#45;&#45;21</title>
<path fill="none" stroke="black" d="M194.9,-359.7C200.65,-348.52 208.07,-334.08 213.7,-323.14"/>
</g>
<!-- 7 -->
<g id="node8" class="node">
<title>7</title>
<polygon fill="none" stroke="black" points="138,-252 84,-252 84,-216 138,-216 138,-252"/>
<text text-anchor="middle" x="111" y="-229.8" font-family="Times,serif" font-size="14.00">T</text>
</g>
<!-- 6&#45;&#45;7 -->
<g id="edge12" class="edge">
<title>6&#45;&#45;7</title>
<path fill="none" stroke="black" d="M140.36,-287.7C134.31,-276.85 126.55,-262.92 120.53,-252.1"/>
</g>
<!-- 12 -->
<g id="node13" class="node">
<title>12</title>
<polygon fill="none" stroke="black" points="216,-252 162,-252 162,-216 216,-216 216,-252"/>
<text text-anchor="middle" x="189" y="-229.8" font-family="Times,serif" font-size="14.00">E1</text>
</g>
<!-- 6&#45;&#45;12 -->
<g id="edge11" class="edge">
<title>6&#45;&#45;12</title>
<path fill="none" stroke="black" d="M159.64,-287.7C165.69,-276.85 173.45,-262.92 179.47,-252.1"/>
</g>
<!-- 8 -->
<g id="node9" class="node">
<title>8</title>
<polygon fill="none" stroke="black" points="60,-180 6,-180 6,-144 60,-144 60,-180"/>
<text text-anchor="middle" x="33" y="-157.8" font-family="Times,serif" font-size="14.00">F</text>
</g>
<!-- 7&#45;&#45;8 -->
<g id="edge14" class="edge">
<title>7&#45;&#45;8</title>
<path fill="none" stroke="black" d="M91.72,-215.7C79.63,-204.85 64.11,-190.92 52.06,-180.1"/>
</g>
<!-- 10 -->
<g id="node11" class="node">
<title>10</title>
<polygon fill="none" stroke="black" points="138,-180 84,-180 84,-144 138,-144 138,-180"/>
<text text-anchor="middle" x="111" y="-157.8" font-family="Times,serif" font-size="14.00">T1</text>
</g>
<!-- 7&#45;&#45;10 -->
<g id="edge13" class="edge">
<title>7&#45;&#45;10</title>
<path fill="none" stroke="black" d="M111,-215.7C111,-204.85 111,-190.92 111,-180.1"/>
</g>
<!-- 9 -->
<g id="node10" class="node">
<title>9</title>
<ellipse fill="none" stroke="red" stroke-width="2" cx="27" cy="-90" rx="27" ry="18"/>
<text text-anchor="middle" x="27" y="-85.8" font-family="Times,serif" font-size="14.00">id</text>
</g>
<!-- 8&#45;&#45;9 -->
<g id="edge15" class="edge">
<title>8&#45;&#45;9</title>
<path fill="none" stroke="black" d="M31.52,-143.7C30.59,-132.85 29.39,-118.92 28.47,-108.1"/>
</g>
<!-- 11 -->
<g id="node12" class="node">
<title>11</title>
<ellipse fill="none" stroke="red" stroke-width="2" cx="111" cy="-90" rx="38.86" ry="18"/>
<text text-anchor="middle" x="111" y="-85.8" font-family="Times,serif" font-size="14.00">epsilon</text>
</g>
<!-- 10&#45;&#45;11 -->
<g id="edge16" class="edge">
<title>10&#45;&#45;11</title>
<path fill="none" stroke="black" d="M111,-143.7C111,-132.85 111,-118.92 111,-108.1"/>
</g>
<!-- 13 -->
<g id="node14" class="node">
<title>13</title>
<ellipse fill="none" stroke="red" stroke-width="2" cx="186" cy="-162" rx="27" ry="18"/>
<text text-anchor="middle" x="186" y="-157.8" font-family="Times,serif" font-size="14.00">+</text>
</g>
<!-- 12&#45;&#45;13 -->
<g id="edge19" class="edge">
<title>12&#45;&#45;13</title>
<path fill="none" stroke="black" d="M188.26,-215.7C187.79,-204.85 187.2,-190.92 186.73,-180.1"/>
</g>
<!-- 14 -->
<g id="node15" class="node">
<title>14</title>
<polygon fill="none" stroke="black" points="285,-180 231,-180 231,-144 285,-144 285,-180"/>
<text text-anchor="middle" x="258" y="-157.8" font-family="Times,serif" font-size="14.00">T</text>
</g>
<!-- 12&#45;&#45;14 -->
<g id="edge18" class="edge">
<title>12&#45;&#45;14</title>
<path fill="none" stroke="black" d="M206.06,-215.7C216.75,-204.85 230.48,-190.92 241.14,-180.1"/>
</g>
<!-- 19 -->
<g id="node20" class="node">
<title>19</title>
<polygon fill="none" stroke="black" points="366,-180 312,-180 312,-144 366,-144 366,-180"/>
<text text-anchor="middle" x="339" y="-157.8" font-family="Times,serif" font-size="14.00">E1</text>
</g>
<!-- 12&#45;&#45;19 -->
<g id="edge17" class="edge">
<title>12&#45;&#45;19</title>
<path fill="none" stroke="black" d="M216.16,-220.32C243.26,-207.68 284.67,-188.36 311.79,-175.7"/>
</g>
<!-- 15 -->
<g id="node16" class="node">
<title>15</title>
<polygon fill="none" stroke="black" points="222,-108 168,-108 168,-72 222,-72 222,-108"/>
<text text-anchor="middle" x="195" y="-85.8" font-family="Times,serif" font-size="14.00">F</text>
</g>
<!-- 14&#45;&#45;15 -->
<g id="edge21" class="edge">
<title>14&#45;&#45;15</title>
<path fill="none" stroke="black" d="M242.43,-143.7C232.66,-132.85 220.13,-118.92 210.39,-108.1"/>
</g>
<!-- 17 -->
<g id="node18" class="node">
<title>17</title>
<polygon fill="none" stroke="black" points="294,-108 240,-108 240,-72 294,-72 294,-108"/>
<text text-anchor="middle" x="267" y="-85.8" font-family="Times,serif" font-size="14.00">T1</text>
</g>
<!-- 14&#45;&#45;17 -->
<g id="edge20" class="edge">
<title>14&#45;&#45;17</title>
<path fill="none" stroke="black" d="M260.22,-143.7C261.62,-132.85 263.41,-118.92 264.8,-108.1"/>
</g>
<!-- 16 -->
<g id="node17" class="node">
<title>16</title>
<ellipse fill="none" stroke="red" stroke-width="2" cx="189" cy="-18" rx="27" ry="18"/>
<text text-anchor="middle" x="189" y="-13.8" font-family="Times,serif" font-size="14.00">id</text>
</g>
<!-- 15&#45;&#45;16 -->
<g id="edge22" class="edge">
<title>15&#45;&#45;16</title>
<path fill="none" stroke="black" d="M193.52,-71.7C192.59,-60.85 191.39,-46.92 190.47,-36.1"/>
</g>
<!-- 18 -->
<g id="node19" class="node">
<title>18</title>
<ellipse fill="none" stroke="red" stroke-width="2" cx="273" cy="-18" rx="38.86" ry="18"/>
<text text-anchor="middle" x="273" y="-13.8" font-family="Times,serif" font-size="14.00">epsilon</text>
</g>
<!-- 17&#45;&#45;18 -->
<g id="edge23" class="edge">
<title>17&#45;&#45;18</title>
<path fill="none" stroke="black" d="M268.48,-71.7C269.41,-60.85 270.61,-46.92 271.53,-36.1"/>
</g>
<!-- 20 -->
<g id="node21" class="node">
<title>20</title>
<ellipse fill="none" stroke="red" stroke-width="2" cx="351" cy="-90" rx="38.86" ry="18"/>
<text text-anchor="middle" x="351" y="-85.8" font-family="Times,serif" font-size="14.00">epsilon</text>
</g>
<!-- 19&#45;&#45;20 -->
<g id="edge24" class="edge">
<title>19&#45;&#45;20</title>
<path fill="none" stroke="black" d="M341.97,-143.7C343.83,-132.85 346.21,-118.92 348.07,-108.1"/>
</g>
<!-- 23 -->
<g id="node24" class="node">
<title>23</title>
<ellipse fill="none" stroke="red" stroke-width="2" cx="294" cy="-306" rx="27" ry="18"/>
<text text-anchor="middle" x="294" y="-301.8" font-family="Times,serif" font-size="14.00">*</text>
</g>
<!-- 22&#45;&#45;23 -->
<g id="edge27" class="edge">
<title>22&#45;&#45;23</title>
<path fill="none" stroke="black" d="M348.2,-359.7C336.04,-347.87 320.12,-332.4 308.69,-321.28"/>
</g>
<!-- 24 -->
<g id="node25" class="node">
<title>24</title>
<polygon fill="none" stroke="black" points="393,-324 339,-324 339,-288 393,-288 393,-324"/>
<text text-anchor="middle" x="366" y="-301.8" font-family="Times,serif" font-size="14.00">F</text>
</g>
<!-- 22&#45;&#45;24 -->
<g id="edge26" class="edge">
<title>22&#45;&#45;24</title>
<path fill="none" stroke="black" d="M366,-359.7C366,-348.85 366,-334.92 366,-324.1"/>
</g>
<!-- 26 -->
<g id="node27" class="node">
<title>26</title>
<polygon fill="none" stroke="black" points="465,-324 411,-324 411,-288 465,-288 465,-324"/>
<text text-anchor="middle" x="438" y="-301.8" font-family="Times,serif" font-size="14.00">T1</text>
</g>
<!-- 22&#45;&#45;26 -->
<g id="edge25" class="edge">
<title>22&#45;&#45;26</title>
<path fill="none" stroke="black" d="M383.8,-359.7C394.96,-348.85 409.29,-334.92 420.41,-324.1"/>
</g>
<!-- 25 -->
<g id="node26" class="node">
<title>25</title>
<ellipse fill="none" stroke="red" stroke-width="2" cx="354" cy="-234" rx="27" ry="18"/>
<text text-anchor="middle" x="354" y="-229.8" font-family="Times,serif" font-size="14.00">id</text>
</g>
<!-- 24&#45;&#45;25 -->
<g id="edge28" class="edge">
<title>24&#45;&#45;25</title>
<path fill="none" stroke="black" d="M363.03,-287.7C361.17,-276.85 358.79,-262.92 356.93,-252.1"/>
</g>
<!-- 27 -->
<g id="node28" class="node">
<title>27</title>
<ellipse fill="none" stroke="red" stroke-width="2" cx="438" cy="-234" rx="38.86" ry="18"/>
<text text-anchor="middle" x="438" y="-229.8" font-family="Times,serif" font-size="14.00">epsilon</text>
</g>
<!-- 26&#45;&#45;27 -->
<g id="edge29" class="edge">
<title>26&#45;&#45;27</title>
<path fill="none" stroke="black" d="M438,-287.7C438,-276.85 438,-262.92 438,-252.1"/>
</g>
<!-- 29 -->
<g id="node30" class="node">
<title>29</title>
<ellipse fill="none" stroke="red" stroke-width="2" cx="444" cy="-378" rx="27" ry="18"/>
<text text-anchor="middle" x="444" y="-373.8" font-family="Times,serif" font-size="14.00">+</text>
</g>
<!-- 28&#45;&#45;29 -->
<g id="edge31" class="edge">
<title>28&#45;&#45;29</title>
<path fill="none" stroke="black" d="M444,-431.7C444,-420.85 444,-406.92 444,-396.1"/>
</g>
<!-- 30 -->
<g id="node31" class="node">
<title>30</title>
<polygon fill="none" stroke="black" points="546,-396 492,-396 492,-360 546,-360 546,-396"/>
<text text-anchor="middle" x="519" y="-373.8" font-family="Times,serif" font-size="14.00">T</text>
</g>
<!-- 28&#45;&#45;30 -->
<g id="edge30" class="edge">
<title>28&#45;&#45;30</title>
<path fill="none" stroke="black" d="M462.54,-431.7C474.16,-420.85 489.09,-406.92 500.67,-396.1"/>
</g>
<!-- 31 -->
<g id="node32" class="node">
<title>31</title>
<polygon fill="none" stroke="black" points="548,-324 494,-324 494,-288 548,-288 548,-324"/>
<text text-anchor="middle" x="521" y="-301.8" font-family="Times,serif" font-size="14.00">F</text>
</g>
<!-- 30&#45;&#45;31 -->
<g id="edge32" class="edge">
<title>30&#45;&#45;31</title>
<path fill="none" stroke="black" d="M519.49,-359.7C519.8,-348.85 520.2,-334.92 520.51,-324.1"/>
</g>
<!-- 32 -->
<g id="node33" class="node">
<title>32</title>
<ellipse fill="none" stroke="red" stroke-width="2" cx="522" cy="-234" rx="27" ry="18"/>
<text text-anchor="middle" x="522" y="-229.8" font-family="Times,serif" font-size="14.00">id</text>
</g>
<!-- 31&#45;&#45;32 -->
<g id="edge33" class="edge">
<title>31&#45;&#45;32</title>
<path fill="none" stroke="black" d="M521.25,-287.7C521.4,-276.85 521.6,-262.92 521.76,-252.1"/>
</g>
</g>
</svg>
